{
	"asset":{
		"generator":"Khronos glTF Blender I/O v4.3.47",
		"version":"2.0"
	},
	"extensionsUsed":[
		"KHR_texture_transform"
	],
	"extensionsRequired":[
		"KHR_texture_transform"
	],
	"scene":0,
	"scenes":[
		{
			"name":"Scene",
			"nodes":[
				0,
				1,
				2,
				3,
				4,
				5,
				6,
				7,
				10,
				11,
				12
			]
		}
	],
	"nodes":[
		{
			"name":"Empty"
		},
		{
			"mesh":0,
			"name":"Sphere_1_1.002",
			"rotation":[
				0.5786219239234924,
				-0.21489650011062622,
				0.08302333950996399,
				0.7823830842971802
			],
			"scale":[
				0.0174263846129179,
				0.018682703375816345,
				0.017399804666638374
			],
			"translation":[
				-0.4316672682762146,
				-0.026573210954666138,
				1.241273045539856
			]
		},
		{
			"name":"Empty.001"
		},
		{
			"mesh":1,
			"name":"Sphere_1_1.003",
			"rotation":[
				0.5766116976737976,
				0.002985830418765545,
				0.006701561156660318,
				0.8169854283332825
			],
			"scale":[
				0.006493846420198679,
				0.007569392677396536,
				0.006493999622762203
			],
			"translation":[
				0.3432387113571167,
				0.026989787817001343,
				1.289392352104187
			]
		},
		{
			"mesh":2,
			"name":"Sphere_1_1.004",
			"rotation":[
				0.5658053159713745,
				-0.14544150233268738,
				0.11131206154823303,
				0.8039408326148987
			],
			"scale":[
				0.006494000554084778,
				0.007569392677396536,
				0.006493999622762203
			],
			"translation":[
				-0.5099228620529175,
				0.026989787817001343,
				1.2586928606033325
			]
		},
		{
			"mesh":3,
			"name":"Capsule",
			"rotation":[
				-0.4747138023376465,
				-0.48633041977882385,
				0.3619096875190735,
				0.6380838751792908
			],
			"scale":[
				0.013098971918225288,
				0.013098967261612415,
				0.01309896819293499
			],
			"translation":[
				0.04785594716668129,
				-0.6047075986862183,
				1.2842237949371338
			]
		},
		{
			"mesh":4,
			"name":"Capsule_1",
			"rotation":[
				-0.11283997446298599,
				-0.3613588213920593,
				0.5646886825561523,
				0.733357846736908
			],
			"scale":[
				-0.011954106390476227,
				-0.011954107321798801,
				-0.011954106390476227
			],
			"translation":[
				-0.447156697511673,
				0.40220367908477783,
				1.049512505531311
			]
		},
		{
			"mesh":5,
			"name":"\ud050\ube0c_009",
			"rotation":[
				0,
				-1,
				0,
				4.371138828673793e-08
			],
			"scale":[
				1.57145094871521,
				1.5714504718780518,
				1.5714507102966309
			]
		},
		{
			"mesh":6,
			"name":"\ud050\ube0c_004",
			"scale":[
				100,
				100,
				100
			],
			"translation":[
				0,
				8.099503247649409e-06,
				0
			]
		},
		{
			"mesh":7,
			"name":"\ud050\ube0c_004.001",
			"scale":[
				101.67079162597656,
				101.67079162597656,
				101.67079162597656
			],
			"translation":[
				0,
				-0.00011364692909410223,
				0.993977963924408
			]
		},
		{
			"children":[
				8,
				9
			],
			"name":"Subdivision_Surface_1",
			"rotation":[
				0,
				-1,
				0,
				4.3711402497592644e-08
			],
			"scale":[
				0.01634475588798523,
				0.01634475588798523,
				0.01634475588798523
			],
			"translation":[
				0,
				-1.689178705215454,
				-0.023581452667713165
			]
		},
		{
			"mesh":8,
			"name":"Sphere_1_1.001",
			"rotation":[
				0.5782875418663025,
				0.016987629234790802,
				-0.08532191067934036,
				0.8111814260482788
			],
			"scale":[
				0.0174263846129179,
				0.018682705238461494,
				0.017399804666638374
			],
			"translation":[
				0.43260058760643005,
				-0.026573210954666138,
				1.241273045539856
			]
		},
		{
			"mesh":9,
			"name":"\ud050\ube0c_009.001",
			"rotation":[
				0,
				-1,
				0,
				4.371138828673793e-08
			],
			"scale":[
				1.57145094871521,
				1.5714504718780518,
				1.5714507102966309
			]
		}
	],
	"materials":[
		{
			"doubleSided":true,
			"name":"Material.009",
			"pbrMetallicRoughness":{
				"baseColorFactor":[
					0,
					0,
					0,
					1
				],
				"metallicFactor":0,
				"roughnessFactor":0.5
			}
		},
		{
			"doubleSided":true,
			"name":"Material.005",
			"pbrMetallicRoughness":{
				"baseColorFactor":[
					0,
					0,
					0,
					1
				],
				"metallicFactor":0,
				"roughnessFactor":0.5
			}
		},
		{
			"doubleSided":true,
			"name":"Material.002",
			"pbrMetallicRoughness":{
				"baseColorFactor":[
					0,
					0,
					0,
					1
				],
				"metallicFactor":0,
				"roughnessFactor":0.5
			}
		},
		{
			"doubleSided":true,
			"name":"Blue flannel fabric",
			"normalTexture":{
				"extensions":{
					"KHR_texture_transform":{
						"offset":[
							0,
							-8.99999985098839
						],
						"scale":[
							1,
							9.99999985098839
						]
					}
				},
				"index":0,
				"texCoord":1
			},
			"pbrMetallicRoughness":{
				"baseColorTexture":{
					"extensions":{
						"KHR_texture_transform":{
							"offset":[
								0,
								-8.99999985098839
							],
							"scale":[
								1,
								9.99999985098839
							]
						}
					},
					"index":1,
					"texCoord":1
				},
				"metallicFactor":0,
				"metallicRoughnessTexture":{
					"extensions":{
						"KHR_texture_transform":{
							"offset":[
								0,
								-8.99999985098839
							],
							"scale":[
								1,
								9.99999985098839
							]
						}
					},
					"index":2,
					"texCoord":1
				}
			}
		},
		{
			"doubleSided":true,
			"name":"Blue flannel fabric.001",
			"normalTexture":{
				"extensions":{
					"KHR_texture_transform":{
						"offset":[
							0,
							-8.99999985098839
						],
						"scale":[
							1,
							9.99999985098839
						]
					}
				},
				"index":3,
				"texCoord":1
			},
			"pbrMetallicRoughness":{
				"baseColorTexture":{
					"extensions":{
						"KHR_texture_transform":{
							"offset":[
								0,
								-8.99999985098839
							],
							"scale":[
								1,
								9.99999985098839
							]
						}
					},
					"index":4,
					"texCoord":1
				},
				"metallicFactor":0,
				"metallicRoughnessTexture":{
					"extensions":{
						"KHR_texture_transform":{
							"offset":[
								0,
								-8.99999985098839
							],
							"scale":[
								1,
								9.99999985098839
							]
						}
					},
					"index":5,
					"texCoord":1
				}
			}
		},
		{
			"doubleSided":true,
			"name":"Material.006",
			"pbrMetallicRoughness":{
				"baseColorFactor":[
					0,
					0,
					0,
					1
				],
				"metallicFactor":0,
				"roughnessFactor":0.5
			}
		}
	],
	"meshes":[
		{
			"name":"Mesh.002",
			"primitives":[
				{
					"attributes":{
						"POSITION":0,
						"NORMAL":1,
						"TEXCOORD_0":2
					},
					"indices":3,
					"material":0
				}
			]
		},
		{
			"name":"Mesh.003",
			"primitives":[
				{
					"attributes":{
						"POSITION":4,
						"NORMAL":5,
						"TEXCOORD_0":6
					},
					"indices":3
				}
			]
		},
		{
			"name":"Mesh.004",
			"primitives":[
				{
					"attributes":{
						"POSITION":7,
						"NORMAL":8,
						"TEXCOORD_0":9
					},
					"indices":3
				}
			]
		},
		{
			"name":"Mesh",
			"primitives":[
				{
					"attributes":{
						"POSITION":10,
						"NORMAL":11,
						"TEXCOORD_0":12
					},
					"indices":13,
					"material":1
				}
			]
		},
		{
			"name":"Mesh.001",
			"primitives":[
				{
					"attributes":{
						"POSITION":14,
						"NORMAL":15,
						"TEXCOORD_0":16
					},
					"indices":17,
					"material":2
				}
			]
		},
		{
			"name":"Mesh.006",
			"primitives":[
				{
					"attributes":{
						"POSITION":18,
						"NORMAL":19,
						"TEXCOORD_0":20,
						"TEXCOORD_1":21
					},
					"indices":22
				}
			]
		},
		{
			"name":"Mesh.005",
			"primitives":[
				{
					"attributes":{
						"POSITION":23,
						"NORMAL":24,
						"TEXCOORD_0":25,
						"TEXCOORD_1":26
					},
					"indices":27,
					"material":3
				}
			]
		},
		{
			"name":"Mesh.009",
			"primitives":[
				{
					"attributes":{
						"POSITION":28,
						"NORMAL":29,
						"TEXCOORD_0":30,
						"TEXCOORD_1":31
					},
					"indices":32,
					"material":4
				}
			]
		},
		{
			"name":"Mesh.010",
			"primitives":[
				{
					"attributes":{
						"POSITION":33,
						"NORMAL":34,
						"TEXCOORD_0":35
					},
					"indices":3,
					"material":5
				}
			]
		},
		{
			"name":"Mesh.007",
			"primitives":[
				{
					"attributes":{
						"POSITION":36,
						"NORMAL":37,
						"TEXCOORD_0":38,
						"TEXCOORD_1":39
					},
					"indices":40
				}
			]
		}
	],
	"textures":[
		{
			"sampler":0,
			"source":0
		},
		{
			"sampler":0,
			"source":1
		},
		{
			"sampler":0,
			"source":2
		},
		{
			"sampler":0,
			"source":0
		},
		{
			"sampler":0,
			"source":1
		},
		{
			"sampler":0,
			"source":2
		}
	],
	"images":[
		{
			"mimeType":"image/jpeg",
			"name":"fabric71_opengl_normal",
			"uri":"fabric71_opengl_normal.jpg"
		},
		{
			"mimeType":"image/jpeg",
			"name":"depositphotos_47939327-stock-photo-texture-of-jeans-material",
			"uri":"depositphotos_47939327-stock-photo-texture-of-jeans-material.jpg"
		},
		{
			"mimeType":"image/png",
			"name":"fabric71_roughness",
			"uri":"fabric71_roughness.png"
		}
	],
	"accessors":[
		{
			"bufferView":0,
			"componentType":5126,
			"count":566,
			"max":[
				13.235642433166504,
				3.0827627182006836,
				13.538025856018066
			],
			"min":[
				-13.235642433166504,
				-3.0827627182006836,
				-13.538025856018066
			],
			"type":"VEC3"
		},
		{
			"bufferView":1,
			"componentType":5126,
			"count":566,
			"type":"VEC3"
		},
		{
			"bufferView":2,
			"componentType":5126,
			"count":566,
			"type":"VEC2"
		},
		{
			"bufferView":3,
			"componentType":5123,
			"count":2880,
			"type":"SCALAR"
		},
		{
			"bufferView":4,
			"componentType":5126,
			"count":566,
			"max":[
				13.235642433166504,
				3.0827627182006836,
				13.538025856018066
			],
			"min":[
				-13.235642433166504,
				-3.0827627182006836,
				-13.538025856018066
			],
			"type":"VEC3"
		},
		{
			"bufferView":5,
			"componentType":5126,
			"count":566,
			"type":"VEC3"
		},
		{
			"bufferView":6,
			"componentType":5126,
			"count":566,
			"type":"VEC2"
		},
		{
			"bufferView":7,
			"componentType":5126,
			"count":566,
			"max":[
				13.235642433166504,
				3.0827627182006836,
				13.538025856018066
			],
			"min":[
				-13.235642433166504,
				-3.0827627182006836,
				-13.538025856018066
			],
			"type":"VEC3"
		},
		{
			"bufferView":8,
			"componentType":5126,
			"count":566,
			"type":"VEC3"
		},
		{
			"bufferView":9,
			"componentType":5126,
			"count":566,
			"type":"VEC2"
		},
		{
			"bufferView":10,
			"componentType":5126,
			"count":321,
			"max":[
				24.186307907104492,
				2.843778371810913,
				19.5454044342041
			],
			"min":[
				-1.4240156412124634,
				-2.843778371810913,
				-15.782661437988281
			],
			"type":"VEC3"
		},
		{
			"bufferView":11,
			"componentType":5126,
			"count":321,
			"type":"VEC3"
		},
		{
			"bufferView":12,
			"componentType":5126,
			"count":321,
			"type":"VEC2"
		},
		{
			"bufferView":13,
			"componentType":5123,
			"count":1632,
			"type":"SCALAR"
		},
		{
			"bufferView":14,
			"componentType":5126,
			"count":219,
			"max":[
				4.998899459838867,
				14.849080085754395,
				5.85082483291626
			],
			"min":[
				-4.998899459838867,
				-14.849080085754395,
				-5.85082483291626
			],
			"type":"VEC3"
		},
		{
			"bufferView":15,
			"componentType":5126,
			"count":219,
			"type":"VEC3"
		},
		{
			"bufferView":16,
			"componentType":5126,
			"count":219,
			"type":"VEC2"
		},
		{
			"bufferView":17,
			"componentType":5123,
			"count":1056,
			"type":"SCALAR"
		},
		{
			"bufferView":18,
			"componentType":5126,
			"count":1346,
			"max":[
				1.0260825157165527,
				1.0726652145385742,
				0.918354868888855
			],
			"min":[
				-1.0232576131820679,
				-1.6844264268875122,
				-0.8785357475280762
			],
			"type":"VEC3"
		},
		{
			"bufferView":19,
			"componentType":5126,
			"count":1346,
			"type":"VEC3"
		},
		{
			"bufferView":20,
			"componentType":5126,
			"count":1346,
			"type":"VEC2"
		},
		{
			"bufferView":21,
			"componentType":5126,
			"count":1346,
			"type":"VEC2"
		},
		{
			"bufferView":22,
			"componentType":5123,
			"count":5004,
			"type":"SCALAR"
		},
		{
			"bufferView":23,
			"componentType":5126,
			"count":647,
			"max":[
				0.6714114546775818,
				0.5071738958358765,
				0.5493716597557068
			],
			"min":[
				-0.6714386940002441,
				-0.5113121867179871,
				-0.5396807789802551
			],
			"type":"VEC3"
		},
		{
			"bufferView":24,
			"componentType":5126,
			"count":647,
			"type":"VEC3"
		},
		{
			"bufferView":25,
			"componentType":5126,
			"count":647,
			"type":"VEC2"
		},
		{
			"bufferView":26,
			"componentType":5126,
			"count":647,
			"type":"VEC2"
		},
		{
			"bufferView":27,
			"componentType":5123,
			"count":2304,
			"type":"SCALAR"
		},
		{
			"bufferView":28,
			"componentType":5126,
			"count":92,
			"max":[
				0.28163573145866394,
				-0.04358401894569397,
				-0.4721684753894806
			],
			"min":[
				-0.28166258335113525,
				-0.2809315323829651,
				-0.5883910059928894
			],
			"type":"VEC3"
		},
		{
			"bufferView":29,
			"componentType":5126,
			"count":92,
			"type":"VEC3"
		},
		{
			"bufferView":30,
			"componentType":5126,
			"count":92,
			"type":"VEC2"
		},
		{
			"bufferView":31,
			"componentType":5126,
			"count":92,
			"type":"VEC2"
		},
		{
			"bufferView":32,
			"componentType":5123,
			"count":324,
			"type":"SCALAR"
		},
		{
			"bufferView":33,
			"componentType":5126,
			"count":566,
			"max":[
				13.235642433166504,
				3.0827627182006836,
				13.538025856018066
			],
			"min":[
				-13.235642433166504,
				-3.0827627182006836,
				-13.538025856018066
			],
			"type":"VEC3"
		},
		{
			"bufferView":34,
			"componentType":5126,
			"count":566,
			"type":"VEC3"
		},
		{
			"bufferView":35,
			"componentType":5126,
			"count":566,
			"type":"VEC2"
		},
		{
			"bufferView":36,
			"componentType":5126,
			"count":280,
			"max":[
				2.187138795852661,
				0.6435767412185669,
				0.31256482005119324
			],
			"min":[
				0.3305441737174988,
				-1.4196233749389648,
				-0.6567428112030029
			],
			"type":"VEC3"
		},
		{
			"bufferView":37,
			"componentType":5126,
			"count":280,
			"type":"VEC3"
		},
		{
			"bufferView":38,
			"componentType":5126,
			"count":280,
			"type":"VEC2"
		},
		{
			"bufferView":39,
			"componentType":5126,
			"count":280,
			"type":"VEC2"
		},
		{
			"bufferView":40,
			"componentType":5123,
			"count":960,
			"type":"SCALAR"
		}
	],
	"bufferViews":[
		{
			"buffer":0,
			"byteLength":6792,
			"byteOffset":0,
			"target":34962
		},
		{
			"buffer":0,
			"byteLength":6792,
			"byteOffset":6792,
			"target":34962
		},
		{
			"buffer":0,
			"byteLength":4528,
			"byteOffset":13584,
			"target":34962
		},
		{
			"buffer":0,
			"byteLength":5760,
			"byteOffset":18112,
			"target":34963
		},
		{
			"buffer":0,
			"byteLength":6792,
			"byteOffset":23872,
			"target":34962
		},
		{
			"buffer":0,
			"byteLength":6792,
			"byteOffset":30664,
			"target":34962
		},
		{
			"buffer":0,
			"byteLength":4528,
			"byteOffset":37456,
			"target":34962
		},
		{
			"buffer":0,
			"byteLength":6792,
			"byteOffset":41984,
			"target":34962
		},
		{
			"buffer":0,
			"byteLength":6792,
			"byteOffset":48776,
			"target":34962
		},
		{
			"buffer":0,
			"byteLength":4528,
			"byteOffset":55568,
			"target":34962
		},
		{
			"buffer":0,
			"byteLength":3852,
			"byteOffset":60096,
			"target":34962
		},
		{
			"buffer":0,
			"byteLength":3852,
			"byteOffset":63948,
			"target":34962
		},
		{
			"buffer":0,
			"byteLength":2568,
			"byteOffset":67800,
			"target":34962
		},
		{
			"buffer":0,
			"byteLength":3264,
			"byteOffset":70368,
			"target":34963
		},
		{
			"buffer":0,
			"byteLength":2628,
			"byteOffset":73632,
			"target":34962
		},
		{
			"buffer":0,
			"byteLength":2628,
			"byteOffset":76260,
			"target":34962
		},
		{
			"buffer":0,
			"byteLength":1752,
			"byteOffset":78888,
			"target":34962
		},
		{
			"buffer":0,
			"byteLength":2112,
			"byteOffset":80640,
			"target":34963
		},
		{
			"buffer":0,
			"byteLength":16152,
			"byteOffset":82752,
			"target":34962
		},
		{
			"buffer":0,
			"byteLength":16152,
			"byteOffset":98904,
			"target":34962
		},
		{
			"buffer":0,
			"byteLength":10768,
			"byteOffset":115056,
			"target":34962
		},
		{
			"buffer":0,
			"byteLength":10768,
			"byteOffset":125824,
			"target":34962
		},
		{
			"buffer":0,
			"byteLength":10008,
			"byteOffset":136592,
			"target":34963
		},
		{
			"buffer":0,
			"byteLength":7764,
			"byteOffset":146600,
			"target":34962
		},
		{
			"buffer":0,
			"byteLength":7764,
			"byteOffset":154364,
			"target":34962
		},
		{
			"buffer":0,
			"byteLength":5176,
			"byteOffset":162128,
			"target":34962
		},
		{
			"buffer":0,
			"byteLength":5176,
			"byteOffset":167304,
			"target":34962
		},
		{
			"buffer":0,
			"byteLength":4608,
			"byteOffset":172480,
			"target":34963
		},
		{
			"buffer":0,
			"byteLength":1104,
			"byteOffset":177088,
			"target":34962
		},
		{
			"buffer":0,
			"byteLength":1104,
			"byteOffset":178192,
			"target":34962
		},
		{
			"buffer":0,
			"byteLength":736,
			"byteOffset":179296,
			"target":34962
		},
		{
			"buffer":0,
			"byteLength":736,
			"byteOffset":180032,
			"target":34962
		},
		{
			"buffer":0,
			"byteLength":648,
			"byteOffset":180768,
			"target":34963
		},
		{
			"buffer":0,
			"byteLength":6792,
			"byteOffset":181416,
			"target":34962
		},
		{
			"buffer":0,
			"byteLength":6792,
			"byteOffset":188208,
			"target":34962
		},
		{
			"buffer":0,
			"byteLength":4528,
			"byteOffset":195000,
			"target":34962
		},
		{
			"buffer":0,
			"byteLength":3360,
			"byteOffset":199528,
			"target":34962
		},
		{
			"buffer":0,
			"byteLength":3360,
			"byteOffset":202888,
			"target":34962
		},
		{
			"buffer":0,
			"byteLength":2240,
			"byteOffset":206248,
			"target":34962
		},
		{
			"buffer":0,
			"byteLength":2240,
			"byteOffset":208488,
			"target":34962
		},
		{
			"buffer":0,
			"byteLength":1920,
			"byteOffset":210728,
			"target":34963
		}
	],
	"samplers":[
		{
			"magFilter":9729,
			"minFilter":9987
		}
	],
	"buffers":[
		{
			"byteLength":212648,
			"uri":"noa_v2.bin"
		}
	]
}
