{
	"asset":{
		"generator":"Khronos glTF Blender I/O v4.3.47",
		"version":"2.0"
	},
	"scene":0,
	"scenes":[
		{
			"name":"Scene",
			"nodes":[
				0,
				1,
				2,
				3,
				4,
				5,
				6,
				7,
				8,
				9,
				10,
				11,
				12,
				13,
				14,
				15,
				16,
				17
			]
		}
	],
	"nodes":[
		{
			"mesh":0,
			"name":"\ud050\ube0c_009.001",
			"rotation":[
				0,
				-1,
				0,
				4.371138828673793e-08
			],
			"scale":[
				1.57145094871521,
				1.5714504718780518,
				1.5714507102966309
			]
		},
		{
			"mesh":1,
			"name":"\ud050\ube0c_009",
			"rotation":[
				0,
				-1,
				0,
				4.371138828673793e-08
			],
			"scale":[
				1.57145094871521,
				1.5714504718780518,
				1.5714507102966309
			]
		},
		{
			"mesh":2,
			"name":"Sphere_1_1.004",
			"rotation":[
				0.565805196762085,
				-0.14544151723384857,
				0.11131206154823303,
				0.8039408326148987
			],
			"scale":[
				0.006000000052154064,
				0.007569392677396536,
				0.005999999586492777
			],
			"translation":[
				-0.5099228620529175,
				0.026989787817001343,
				1.2586928606033325
			]
		},
		{
			"mesh":3,
			"name":"Sphere_1_1.003",
			"rotation":[
				0.5766116976737976,
				0.0029858299531042576,
				0.006701561156660318,
				0.8169854283332825
			],
			"scale":[
				0.006000000052154064,
				0.007569392677396536,
				0.005999999586492777
			],
			"translation":[
				0.3432387113571167,
				0.026989787817001343,
				1.289392352104187
			]
		},
		{
			"mesh":4,
			"name":"Sphere_1_1.002",
			"rotation":[
				0.5786219239234924,
				-0.21489650011062622,
				0.08302333950996399,
				0.7823830842971802
			],
			"scale":[
				0.0174263846129179,
				0.018682703375816345,
				0.017399804666638374
			],
			"translation":[
				-0.4316672682762146,
				-0.026573210954666138,
				1.241273045539856
			]
		},
		{
			"mesh":5,
			"name":"Sphere_1_1.001",
			"rotation":[
				0.5782875418663025,
				0.016987629234790802,
				-0.08532191067934036,
				0.8111814260482788
			],
			"scale":[
				0.0174263846129179,
				0.018682705238461494,
				0.017399804666638374
			],
			"translation":[
				0.43260058760643005,
				-0.026573210954666138,
				1.241273045539856
			]
		},
		{
			"name":"Empty.001"
		},
		{
			"name":"Empty"
		},
		{
			"mesh":6,
			"name":"Capsule_1",
			"rotation":[
				-0.11283997446298599,
				-0.3613588213920593,
				0.5646886825561523,
				0.733357846736908
			],
			"scale":[
				-0.011954106390476227,
				-0.011954107321798801,
				-0.011954106390476227
			],
			"translation":[
				-0.447156697511673,
				0.40220367908477783,
				1.049512505531311
			]
		},
		{
			"mesh":7,
			"name":"Capsule",
			"rotation":[
				-0.4747138023376465,
				-0.48633041977882385,
				0.3619096875190735,
				0.6380838751792908
			],
			"scale":[
				0.013098971918225288,
				0.013098967261612415,
				0.01309896819293499
			],
			"translation":[
				0.04785594716668129,
				-0.6047075986862183,
				1.2842237949371338
			]
		},
		{
			"mesh":8,
			"name":"\ud050\ube0c_009.002",
			"rotation":[
				0,
				-1,
				0,
				4.371138828673793e-08
			],
			"scale":[
				1.57145094871521,
				1.5714504718780518,
				1.5714507102966309
			]
		},
		{
			"mesh":9,
			"name":"\ud050\ube0c_009.003",
			"rotation":[
				0,
				-1,
				0,
				4.371138828673793e-08
			],
			"scale":[
				1.6926518678665161,
				1.6926511526107788,
				1.692651629447937
			],
			"translation":[
				0,
				0.08933231234550476,
				0
			]
		},
		{
			"mesh":10,
			"name":"Cylinder",
			"rotation":[
				0.05683952197432518,
				0.7594051957130432,
				0.6159504055976868,
				0.20168805122375488
			],
			"scale":[
				-0.05000000074505806,
				-0.00717575941234827,
				-0.05000000074505806
			],
			"translation":[
				-0.25256019830703735,
				-1.5862066745758057,
				0.6884042620658875
			]
		},
		{
			"mesh":11,
			"name":"Cylinder.001",
			"rotation":[
				-0.7015619277954102,
				0.0476883240044117,
				-0.173777773976326,
				0.6894475817680359
			],
			"scale":[
				-0.05000000074505806,
				-0.007175758946686983,
				-0.05000000447034836
			],
			"translation":[
				-0.25797897577285767,
				-1.7955198287963867,
				0.7127463817596436
			]
		},
		{
			"mesh":12,
			"name":"Cylinder.002",
			"rotation":[
				0.5558773279190063,
				0.24242296814918518,
				0.5255207419395447,
				0.5967073440551758
			],
			"scale":[
				-0.05000000074505806,
				-0.00717575941234827,
				-0.05000000074505806
			],
			"translation":[
				-0.2620142996311188,
				-2.0083775520324707,
				0.7068808078765869
			]
		},
		{
			"mesh":13,
			"name":"Cylinder.003",
			"rotation":[
				0.6992864012718201,
				0.4275026321411133,
				0.31011292338371277,
				0.48173651099205017
			],
			"scale":[
				-0.05000000074505806,
				-0.007175759878009558,
				-0.05000000074505806
			],
			"translation":[
				0.28356966376304626,
				-2.0083775520324707,
				0.7054292559623718
			]
		},
		{
			"mesh":14,
			"name":"Cylinder.004",
			"rotation":[
				-0.06726223975419998,
				-0.7320544719696045,
				-0.6739691495895386,
				0.07305916398763657
			],
			"scale":[
				-0.05000000074505806,
				-0.00717575941234827,
				-0.05000000074505806
			],
			"translation":[
				0.2809179723262787,
				-1.789623498916626,
				0.7048394680023193
			]
		},
		{
			"mesh":15,
			"name":"Cylinder.005",
			"rotation":[
				-0.03150789067149162,
				-0.7713290452957153,
				-0.6320440173149109,
				0.06767074018716812
			],
			"scale":[
				-0.05000000447034836,
				-0.007175758946686983,
				-0.05000000074505806
			],
			"translation":[
				0.2690314054489136,
				-1.5829464197158813,
				0.6769979000091553
			]
		}
	],
	"materials":[
		{
			"doubleSided":true,
			"name":"Material.009",
			"pbrMetallicRoughness":{
				"baseColorFactor":[
					0,
					0,
					0,
					1
				],
				"metallicFactor":0,
				"roughnessFactor":0.5
			}
		},
		{
			"doubleSided":true,
			"name":"Material.006",
			"pbrMetallicRoughness":{
				"baseColorFactor":[
					0,
					0,
					0,
					1
				],
				"metallicFactor":0,
				"roughnessFactor":0.5
			}
		},
		{
			"doubleSided":true,
			"name":"Material.002",
			"pbrMetallicRoughness":{
				"baseColorFactor":[
					0,
					0,
					0,
					1
				],
				"metallicFactor":0,
				"roughnessFactor":0.5
			}
		},
		{
			"doubleSided":true,
			"name":"Material.005",
			"pbrMetallicRoughness":{
				"baseColorFactor":[
					0,
					0,
					0,
					1
				],
				"metallicFactor":0,
				"roughnessFactor":0.5
			}
		},
		{
			"doubleSided":true,
			"name":"Material.001",
			"pbrMetallicRoughness":{
				"baseColorFactor":[
					0.009387735277414322,
					0.009387735277414322,
					0.009387735277414322,
					1
				],
				"metallicFactor":0,
				"roughnessFactor":0.6645569801330566
			}
		}
	],
	"meshes":[
		{
			"name":"Mesh.007",
			"primitives":[
				{
					"attributes":{
						"POSITION":0,
						"NORMAL":1,
						"TEXCOORD_0":2,
						"TEXCOORD_1":3
					},
					"indices":4
				}
			]
		},
		{
			"name":"Mesh.006",
			"primitives":[
				{
					"attributes":{
						"POSITION":5,
						"NORMAL":6,
						"TEXCOORD_0":7,
						"TEXCOORD_1":8
					},
					"indices":9
				}
			]
		},
		{
			"name":"Mesh.004",
			"primitives":[
				{
					"attributes":{
						"POSITION":10,
						"NORMAL":11,
						"TEXCOORD_0":12
					},
					"indices":13
				}
			]
		},
		{
			"name":"Mesh.003",
			"primitives":[
				{
					"attributes":{
						"POSITION":14,
						"NORMAL":15,
						"TEXCOORD_0":16
					},
					"indices":13
				}
			]
		},
		{
			"name":"Mesh.002",
			"primitives":[
				{
					"attributes":{
						"POSITION":17,
						"NORMAL":18,
						"TEXCOORD_0":19
					},
					"indices":13,
					"material":0
				}
			]
		},
		{
			"name":"Mesh.010",
			"primitives":[
				{
					"attributes":{
						"POSITION":20,
						"NORMAL":21,
						"TEXCOORD_0":22
					},
					"indices":13,
					"material":1
				}
			]
		},
		{
			"name":"Mesh.001",
			"primitives":[
				{
					"attributes":{
						"POSITION":23,
						"NORMAL":24,
						"TEXCOORD_0":25
					},
					"indices":26,
					"material":2
				}
			]
		},
		{
			"name":"Mesh",
			"primitives":[
				{
					"attributes":{
						"POSITION":27,
						"NORMAL":28,
						"TEXCOORD_0":29
					},
					"indices":30,
					"material":3
				}
			]
		},
		{
			"name":"Mesh",
			"primitives":[
				{
					"attributes":{
						"POSITION":31,
						"NORMAL":32,
						"TEXCOORD_0":33,
						"TEXCOORD_1":34
					},
					"indices":35
				}
			]
		},
		{
			"name":"Mesh.011",
			"primitives":[
				{
					"attributes":{
						"POSITION":36,
						"NORMAL":37,
						"TEXCOORD_0":38,
						"TEXCOORD_1":39
					},
					"indices":40,
					"material":4
				}
			]
		},
		{
			"name":"Cylinder",
			"primitives":[
				{
					"attributes":{
						"POSITION":41,
						"NORMAL":42,
						"TEXCOORD_0":43
					},
					"indices":44
				}
			]
		},
		{
			"name":"Cylinder.001",
			"primitives":[
				{
					"attributes":{
						"POSITION":45,
						"NORMAL":46,
						"TEXCOORD_0":47
					},
					"indices":44
				}
			]
		},
		{
			"name":"Cylinder.002",
			"primitives":[
				{
					"attributes":{
						"POSITION":48,
						"NORMAL":49,
						"TEXCOORD_0":50
					},
					"indices":44
				}
			]
		},
		{
			"name":"Cylinder.003",
			"primitives":[
				{
					"attributes":{
						"POSITION":51,
						"NORMAL":52,
						"TEXCOORD_0":53
					},
					"indices":44
				}
			]
		},
		{
			"name":"Cylinder.004",
			"primitives":[
				{
					"attributes":{
						"POSITION":54,
						"NORMAL":55,
						"TEXCOORD_0":56
					},
					"indices":44
				}
			]
		},
		{
			"name":"Cylinder.005",
			"primitives":[
				{
					"attributes":{
						"POSITION":57,
						"NORMAL":58,
						"TEXCOORD_0":59
					},
					"indices":44
				}
			]
		}
	],
	"accessors":[
		{
			"bufferView":0,
			"componentType":5126,
			"count":11449,
			"max":[
				2.1652534008026123,
				0.6306808590888977,
				0.305957555770874
			],
			"min":[
				-2.1652534008026123,
				-1.4010095596313477,
				-0.6415161490440369
			],
			"type":"VEC3"
		},
		{
			"bufferView":1,
			"componentType":5126,
			"count":11449,
			"type":"VEC3"
		},
		{
			"bufferView":2,
			"componentType":5126,
			"count":11449,
			"type":"VEC2"
		},
		{
			"bufferView":3,
			"componentType":5126,
			"count":11449,
			"type":"VEC2"
		},
		{
			"bufferView":4,
			"componentType":5123,
			"count":61440,
			"type":"SCALAR"
		},
		{
			"bufferView":5,
			"componentType":5126,
			"count":30254,
			"max":[
				1.0194658041000366,
				1.071414828300476,
				0.8987271785736084
			],
			"min":[
				-1.0196646451950073,
				-1.676510214805603,
				-0.8621407151222229
			],
			"type":"VEC3"
		},
		{
			"bufferView":6,
			"componentType":5126,
			"count":30254,
			"type":"VEC3"
		},
		{
			"bufferView":7,
			"componentType":5126,
			"count":30254,
			"type":"VEC2"
		},
		{
			"bufferView":8,
			"componentType":5126,
			"count":30254,
			"type":"VEC2"
		},
		{
			"bufferView":9,
			"componentType":5123,
			"count":163296,
			"type":"SCALAR"
		},
		{
			"bufferView":10,
			"componentType":5126,
			"count":566,
			"max":[
				13.235642433166504,
				3.0827627182006836,
				13.538025856018066
			],
			"min":[
				-13.235642433166504,
				-3.0827627182006836,
				-13.538025856018066
			],
			"type":"VEC3"
		},
		{
			"bufferView":11,
			"componentType":5126,
			"count":566,
			"type":"VEC3"
		},
		{
			"bufferView":12,
			"componentType":5126,
			"count":566,
			"type":"VEC2"
		},
		{
			"bufferView":13,
			"componentType":5123,
			"count":2880,
			"type":"SCALAR"
		},
		{
			"bufferView":14,
			"componentType":5126,
			"count":566,
			"max":[
				13.235642433166504,
				3.0827627182006836,
				13.538025856018066
			],
			"min":[
				-13.235642433166504,
				-3.0827627182006836,
				-13.538025856018066
			],
			"type":"VEC3"
		},
		{
			"bufferView":15,
			"componentType":5126,
			"count":566,
			"type":"VEC3"
		},
		{
			"bufferView":16,
			"componentType":5126,
			"count":566,
			"type":"VEC2"
		},
		{
			"bufferView":17,
			"componentType":5126,
			"count":566,
			"max":[
				13.235642433166504,
				3.0827627182006836,
				13.538025856018066
			],
			"min":[
				-13.235642433166504,
				-3.0827627182006836,
				-13.538025856018066
			],
			"type":"VEC3"
		},
		{
			"bufferView":18,
			"componentType":5126,
			"count":566,
			"type":"VEC3"
		},
		{
			"bufferView":19,
			"componentType":5126,
			"count":566,
			"type":"VEC2"
		},
		{
			"bufferView":20,
			"componentType":5126,
			"count":566,
			"max":[
				13.235642433166504,
				3.0827627182006836,
				13.538025856018066
			],
			"min":[
				-13.235642433166504,
				-3.0827627182006836,
				-13.538025856018066
			],
			"type":"VEC3"
		},
		{
			"bufferView":21,
			"componentType":5126,
			"count":566,
			"type":"VEC3"
		},
		{
			"bufferView":22,
			"componentType":5126,
			"count":566,
			"type":"VEC2"
		},
		{
			"bufferView":23,
			"componentType":5126,
			"count":438,
			"max":[
				4.998899459838867,
				62.73189926147461,
				63.61676788330078
			],
			"min":[
				-14.195831298828125,
				-14.849080085754395,
				-5.85082483291626
			],
			"type":"VEC3"
		},
		{
			"bufferView":24,
			"componentType":5126,
			"count":438,
			"type":"VEC3"
		},
		{
			"bufferView":25,
			"componentType":5126,
			"count":438,
			"type":"VEC2"
		},
		{
			"bufferView":26,
			"componentType":5123,
			"count":2112,
			"type":"SCALAR"
		},
		{
			"bufferView":27,
			"componentType":5126,
			"count":157,
			"max":[
				24.17184829711914,
				2.843778371810913,
				19.5454044342041
			],
			"min":[
				-1.4928957223892212,
				-2.8473293781280518,
				-15.764949798583984
			],
			"type":"VEC3"
		},
		{
			"bufferView":28,
			"componentType":5126,
			"count":157,
			"type":"VEC3"
		},
		{
			"bufferView":29,
			"componentType":5126,
			"count":157,
			"type":"VEC2"
		},
		{
			"bufferView":30,
			"componentType":5123,
			"count":816,
			"type":"SCALAR"
		},
		{
			"bufferView":31,
			"componentType":5126,
			"count":6895,
			"max":[
				0.6239176392555237,
				-0.5664611458778381,
				0.5538469552993774
			],
			"min":[
				-0.6239175796508789,
				-1.5400898456573486,
				-0.4352927505970001
			],
			"type":"VEC3"
		},
		{
			"bufferView":32,
			"componentType":5126,
			"count":6895,
			"type":"VEC3"
		},
		{
			"bufferView":33,
			"componentType":5126,
			"count":6895,
			"type":"VEC2"
		},
		{
			"bufferView":34,
			"componentType":5126,
			"count":6895,
			"type":"VEC2"
		},
		{
			"bufferView":35,
			"componentType":5123,
			"count":36864,
			"type":"SCALAR"
		},
		{
			"bufferView":36,
			"componentType":5126,
			"count":2831,
			"max":[
				0.6372276544570923,
				-0.5665507316589355,
				0.5538400411605835
			],
			"min":[
				-0.6372277140617371,
				-1.5400636196136475,
				-0.43527939915657043
			],
			"type":"VEC3"
		},
		{
			"bufferView":37,
			"componentType":5126,
			"count":2831,
			"type":"VEC3"
		},
		{
			"bufferView":38,
			"componentType":5126,
			"count":2831,
			"type":"VEC2"
		},
		{
			"bufferView":39,
			"componentType":5126,
			"count":2831,
			"type":"VEC2"
		},
		{
			"bufferView":40,
			"componentType":5123,
			"count":15357,
			"type":"SCALAR"
		},
		{
			"bufferView":41,
			"componentType":5126,
			"count":1756,
			"max":[
				0.9931389689445496,
				1,
				0.9931389689445496
			],
			"min":[
				-0.9931389689445496,
				-0.9999914169311523,
				-0.9931146502494812
			],
			"type":"VEC3"
		},
		{
			"bufferView":42,
			"componentType":5126,
			"count":1756,
			"type":"VEC3"
		},
		{
			"bufferView":43,
			"componentType":5126,
			"count":1756,
			"type":"VEC2"
		},
		{
			"bufferView":44,
			"componentType":5123,
			"count":2496,
			"type":"SCALAR"
		},
		{
			"bufferView":45,
			"componentType":5126,
			"count":1756,
			"max":[
				0.9931389689445496,
				1,
				0.9931389689445496
			],
			"min":[
				-0.9931389689445496,
				-0.9999914169311523,
				-0.9931146502494812
			],
			"type":"VEC3"
		},
		{
			"bufferView":46,
			"componentType":5126,
			"count":1756,
			"type":"VEC3"
		},
		{
			"bufferView":47,
			"componentType":5126,
			"count":1756,
			"type":"VEC2"
		},
		{
			"bufferView":48,
			"componentType":5126,
			"count":1756,
			"max":[
				0.9931389689445496,
				1,
				0.9931389689445496
			],
			"min":[
				-0.9931389689445496,
				-0.9999914169311523,
				-0.9931146502494812
			],
			"type":"VEC3"
		},
		{
			"bufferView":49,
			"componentType":5126,
			"count":1756,
			"type":"VEC3"
		},
		{
			"bufferView":50,
			"componentType":5126,
			"count":1756,
			"type":"VEC2"
		},
		{
			"bufferView":51,
			"componentType":5126,
			"count":1756,
			"max":[
				0.9931389689445496,
				1,
				0.9931389689445496
			],
			"min":[
				-0.9931389689445496,
				-0.9999914169311523,
				-0.9931146502494812
			],
			"type":"VEC3"
		},
		{
			"bufferView":52,
			"componentType":5126,
			"count":1756,
			"type":"VEC3"
		},
		{
			"bufferView":53,
			"componentType":5126,
			"count":1756,
			"type":"VEC2"
		},
		{
			"bufferView":54,
			"componentType":5126,
			"count":1756,
			"max":[
				0.9931389689445496,
				1,
				0.9931389689445496
			],
			"min":[
				-0.9931389689445496,
				-0.9999914169311523,
				-0.9931146502494812
			],
			"type":"VEC3"
		},
		{
			"bufferView":55,
			"componentType":5126,
			"count":1756,
			"type":"VEC3"
		},
		{
			"bufferView":56,
			"componentType":5126,
			"count":1756,
			"type":"VEC2"
		},
		{
			"bufferView":57,
			"componentType":5126,
			"count":1756,
			"max":[
				0.9931389689445496,
				1,
				0.9931389689445496
			],
			"min":[
				-0.9931389689445496,
				-0.9999914169311523,
				-0.9931146502494812
			],
			"type":"VEC3"
		},
		{
			"bufferView":58,
			"componentType":5126,
			"count":1756,
			"type":"VEC3"
		},
		{
			"bufferView":59,
			"componentType":5126,
			"count":1756,
			"type":"VEC2"
		}
	],
	"bufferViews":[
		{
			"buffer":0,
			"byteLength":137388,
			"byteOffset":0,
			"target":34962
		},
		{
			"buffer":0,
			"byteLength":137388,
			"byteOffset":137388,
			"target":34962
		},
		{
			"buffer":0,
			"byteLength":91592,
			"byteOffset":274776,
			"target":34962
		},
		{
			"buffer":0,
			"byteLength":91592,
			"byteOffset":366368,
			"target":34962
		},
		{
			"buffer":0,
			"byteLength":122880,
			"byteOffset":457960,
			"target":34963
		},
		{
			"buffer":0,
			"byteLength":363048,
			"byteOffset":580840,
			"target":34962
		},
		{
			"buffer":0,
			"byteLength":363048,
			"byteOffset":943888,
			"target":34962
		},
		{
			"buffer":0,
			"byteLength":242032,
			"byteOffset":1306936,
			"target":34962
		},
		{
			"buffer":0,
			"byteLength":242032,
			"byteOffset":1548968,
			"target":34962
		},
		{
			"buffer":0,
			"byteLength":326592,
			"byteOffset":1791000,
			"target":34963
		},
		{
			"buffer":0,
			"byteLength":6792,
			"byteOffset":2117592,
			"target":34962
		},
		{
			"buffer":0,
			"byteLength":6792,
			"byteOffset":2124384,
			"target":34962
		},
		{
			"buffer":0,
			"byteLength":4528,
			"byteOffset":2131176,
			"target":34962
		},
		{
			"buffer":0,
			"byteLength":5760,
			"byteOffset":2135704,
			"target":34963
		},
		{
			"buffer":0,
			"byteLength":6792,
			"byteOffset":2141464,
			"target":34962
		},
		{
			"buffer":0,
			"byteLength":6792,
			"byteOffset":2148256,
			"target":34962
		},
		{
			"buffer":0,
			"byteLength":4528,
			"byteOffset":2155048,
			"target":34962
		},
		{
			"buffer":0,
			"byteLength":6792,
			"byteOffset":2159576,
			"target":34962
		},
		{
			"buffer":0,
			"byteLength":6792,
			"byteOffset":2166368,
			"target":34962
		},
		{
			"buffer":0,
			"byteLength":4528,
			"byteOffset":2173160,
			"target":34962
		},
		{
			"buffer":0,
			"byteLength":6792,
			"byteOffset":2177688,
			"target":34962
		},
		{
			"buffer":0,
			"byteLength":6792,
			"byteOffset":2184480,
			"target":34962
		},
		{
			"buffer":0,
			"byteLength":4528,
			"byteOffset":2191272,
			"target":34962
		},
		{
			"buffer":0,
			"byteLength":5256,
			"byteOffset":2195800,
			"target":34962
		},
		{
			"buffer":0,
			"byteLength":5256,
			"byteOffset":2201056,
			"target":34962
		},
		{
			"buffer":0,
			"byteLength":3504,
			"byteOffset":2206312,
			"target":34962
		},
		{
			"buffer":0,
			"byteLength":4224,
			"byteOffset":2209816,
			"target":34963
		},
		{
			"buffer":0,
			"byteLength":1884,
			"byteOffset":2214040,
			"target":34962
		},
		{
			"buffer":0,
			"byteLength":1884,
			"byteOffset":2215924,
			"target":34962
		},
		{
			"buffer":0,
			"byteLength":1256,
			"byteOffset":2217808,
			"target":34962
		},
		{
			"buffer":0,
			"byteLength":1632,
			"byteOffset":2219064,
			"target":34963
		},
		{
			"buffer":0,
			"byteLength":82740,
			"byteOffset":2220696,
			"target":34962
		},
		{
			"buffer":0,
			"byteLength":82740,
			"byteOffset":2303436,
			"target":34962
		},
		{
			"buffer":0,
			"byteLength":55160,
			"byteOffset":2386176,
			"target":34962
		},
		{
			"buffer":0,
			"byteLength":55160,
			"byteOffset":2441336,
			"target":34962
		},
		{
			"buffer":0,
			"byteLength":73728,
			"byteOffset":2496496,
			"target":34963
		},
		{
			"buffer":0,
			"byteLength":33972,
			"byteOffset":2570224,
			"target":34962
		},
		{
			"buffer":0,
			"byteLength":33972,
			"byteOffset":2604196,
			"target":34962
		},
		{
			"buffer":0,
			"byteLength":22648,
			"byteOffset":2638168,
			"target":34962
		},
		{
			"buffer":0,
			"byteLength":22648,
			"byteOffset":2660816,
			"target":34962
		},
		{
			"buffer":0,
			"byteLength":30714,
			"byteOffset":2683464,
			"target":34963
		},
		{
			"buffer":0,
			"byteLength":21072,
			"byteOffset":2714180,
			"target":34962
		},
		{
			"buffer":0,
			"byteLength":21072,
			"byteOffset":2735252,
			"target":34962
		},
		{
			"buffer":0,
			"byteLength":14048,
			"byteOffset":2756324,
			"target":34962
		},
		{
			"buffer":0,
			"byteLength":4992,
			"byteOffset":2770372,
			"target":34963
		},
		{
			"buffer":0,
			"byteLength":21072,
			"byteOffset":2775364,
			"target":34962
		},
		{
			"buffer":0,
			"byteLength":21072,
			"byteOffset":2796436,
			"target":34962
		},
		{
			"buffer":0,
			"byteLength":14048,
			"byteOffset":2817508,
			"target":34962
		},
		{
			"buffer":0,
			"byteLength":21072,
			"byteOffset":2831556,
			"target":34962
		},
		{
			"buffer":0,
			"byteLength":21072,
			"byteOffset":2852628,
			"target":34962
		},
		{
			"buffer":0,
			"byteLength":14048,
			"byteOffset":2873700,
			"target":34962
		},
		{
			"buffer":0,
			"byteLength":21072,
			"byteOffset":2887748,
			"target":34962
		},
		{
			"buffer":0,
			"byteLength":21072,
			"byteOffset":2908820,
			"target":34962
		},
		{
			"buffer":0,
			"byteLength":14048,
			"byteOffset":2929892,
			"target":34962
		},
		{
			"buffer":0,
			"byteLength":21072,
			"byteOffset":2943940,
			"target":34962
		},
		{
			"buffer":0,
			"byteLength":21072,
			"byteOffset":2965012,
			"target":34962
		},
		{
			"buffer":0,
			"byteLength":14048,
			"byteOffset":2986084,
			"target":34962
		},
		{
			"buffer":0,
			"byteLength":21072,
			"byteOffset":3000132,
			"target":34962
		},
		{
			"buffer":0,
			"byteLength":21072,
			"byteOffset":3021204,
			"target":34962
		},
		{
			"buffer":0,
			"byteLength":14048,
			"byteOffset":3042276,
			"target":34962
		}
	],
	"buffers":[
		{
			"byteLength":3056324,
			"uri":"resblend.bin"
		}
	]
}
