{
	"asset":{
		"generator":"Khronos glTF Blender I/O v4.3.47",
		"version":"2.0"
	},
	"scene":0,
	"scenes":[
		{
			"name":"Scene",
			"nodes":[
				0,
				1,
				2,
				3,
				4,
				5,
				6,
				7,
				8,
				9,
				10,
				11,
				12,
				13,
				14,
				15,
				16
			]
		}
	],
	"nodes":[
		{
			"mesh":0,
			"name":"\ud050\ube0c_009.001",
			"rotation":[
				0,
				-1,
				0,
				4.371138828673793e-08
			],
			"scale":[
				1.57145094871521,
				1.5714504718780518,
				1.5714507102966309
			]
		},
		{
			"mesh":1,
			"name":"\ud050\ube0c_009",
			"rotation":[
				0,
				-1,
				0,
				4.371138828673793e-08
			],
			"scale":[
				1.57145094871521,
				1.5714504718780518,
				1.5714507102966309
			]
		},
		{
			"name":"Subdivision_Surface",
			"rotation":[
				0,
				1,
				5.797942139906809e-05,
				9.446047243011346e-12
			],
			"scale":[
				0.009999999776482582,
				0.009999999776482582,
				0.009999999776482582
			],
			"translation":[
				0.04710030555725098,
				0.3961666524410248,
				-2.716769218444824
			]
		},
		{
			"mesh":2,
			"name":"Sphere_1_1.004",
			"rotation":[
				0.565805196762085,
				-0.14544151723384857,
				0.11131206154823303,
				0.8039408326148987
			],
			"scale":[
				0.006000000052154064,
				0.007569392677396536,
				0.005999999586492777
			],
			"translation":[
				-0.5099228620529175,
				0.026989787817001343,
				1.2586928606033325
			]
		},
		{
			"mesh":3,
			"name":"Sphere_1_1.003",
			"rotation":[
				0.5766116976737976,
				0.0029858299531042576,
				0.006701561156660318,
				0.8169854283332825
			],
			"scale":[
				0.006000000052154064,
				0.007569392677396536,
				0.005999999586492777
			],
			"translation":[
				0.3432387113571167,
				0.026989787817001343,
				1.289392352104187
			]
		},
		{
			"mesh":4,
			"name":"Sphere_1_1.002",
			"rotation":[
				0.5786219239234924,
				-0.21489650011062622,
				0.08302333950996399,
				0.7823830842971802
			],
			"scale":[
				0.0174263846129179,
				0.018682703375816345,
				0.017399804666638374
			],
			"translation":[
				-0.4316672682762146,
				-0.026573210954666138,
				1.241273045539856
			]
		},
		{
			"mesh":5,
			"name":"Sphere_1_1.001",
			"rotation":[
				0.5782875418663025,
				0.016987629234790802,
				-0.08532191067934036,
				0.8111814260482788
			],
			"scale":[
				0.0174263846129179,
				0.018682705238461494,
				0.017399804666638374
			],
			"translation":[
				0.43260058760643005,
				-0.026573210954666138,
				1.241273045539856
			]
		},
		{
			"name":"Empty.001"
		},
		{
			"name":"Empty"
		},
		{
			"mesh":6,
			"name":"Capsule_1",
			"rotation":[
				-0.11283997446298599,
				-0.3613588213920593,
				0.5646886825561523,
				0.733357846736908
			],
			"scale":[
				-0.011954106390476227,
				-0.011954107321798801,
				-0.011954106390476227
			],
			"translation":[
				-0.447156697511673,
				0.40220367908477783,
				1.049512505531311
			]
		},
		{
			"mesh":7,
			"name":"Capsule",
			"rotation":[
				-0.4747138023376465,
				-0.48633041977882385,
				0.3619096875190735,
				0.6380838751792908
			],
			"scale":[
				0.013098971918225288,
				0.013098967261612415,
				0.01309896819293499
			],
			"translation":[
				0.04785594716668129,
				-0.6047075986862183,
				1.2842237949371338
			]
		},
		{
			"mesh":8,
			"name":"\ud050\ube0c_009.002",
			"rotation":[
				0,
				-1,
				0,
				4.371138828673793e-08
			],
			"scale":[
				1.57145094871521,
				1.5714504718780518,
				1.5714507102966309
			]
		},
		{
			"mesh":9,
			"name":"\ud050\ube0c_009.003",
			"rotation":[
				0,
				-1,
				0,
				4.371138828673793e-08
			],
			"scale":[
				1.6926518678665161,
				1.6926511526107788,
				1.692651629447937
			],
			"translation":[
				0,
				0.08933231234550476,
				0
			]
		},
		{
			"mesh":10,
			"name":"Cone",
			"rotation":[
				0,
				-0.14383597671985626,
				-0.9896015524864197,
				0
			],
			"scale":[
				0.12607674300670624,
				0.07380630820989609,
				0.011561625637114048
			],
			"translation":[
				0.01658529043197632,
				-1.5060988664627075,
				0.6993892192840576
			]
		},
		{
			"mesh":11,
			"name":"Cone.001",
			"rotation":[
				-0.0682830885052681,
				0,
				0,
				0.9976660013198853
			],
			"scale":[
				0.12607674300670624,
				0.4065302014350891,
				0.021898211911320686
			],
			"translation":[
				0.01658529043197632,
				-1.8806753158569336,
				0.7595614194869995
			]
		},
		{
			"mesh":12,
			"name":"Plane.001",
			"rotation":[
				0.8828560709953308,
				-0.15566155314445496,
				-0.29825544357299805,
				0.3276863098144531
			],
			"scale":[
				0.5610917210578918,
				1,
				0.7104355096817017
			],
			"translation":[
				1.0968263149261475,
				-1.3125461339950562,
				1.210263729095459
			]
		},
		{
			"mesh":13,
			"name":"Plane.002",
			"rotation":[
				0.8835821151733398,
				-0.16471798717975616,
				-0.27118051052093506,
				0.3444005846977234
			],
			"scale":[
				0.5610917210578918,
				1,
				0.7104355692863464
			],
			"translation":[
				1.0968263149261475,
				-1.3125461339950562,
				1.1560778617858887
			]
		}
	],
	"materials":[
		{
			"doubleSided":true,
			"name":"Material.009",
			"pbrMetallicRoughness":{
				"baseColorFactor":[
					0,
					0,
					0,
					1
				],
				"metallicFactor":0,
				"roughnessFactor":0.5
			}
		},
		{
			"doubleSided":true,
			"name":"Material.006",
			"pbrMetallicRoughness":{
				"baseColorFactor":[
					0,
					0,
					0,
					1
				],
				"metallicFactor":0,
				"roughnessFactor":0.5
			}
		},
		{
			"doubleSided":true,
			"name":"Material.002",
			"pbrMetallicRoughness":{
				"baseColorFactor":[
					0,
					0,
					0,
					1
				],
				"metallicFactor":0,
				"roughnessFactor":0.5
			}
		},
		{
			"doubleSided":true,
			"name":"Material.005",
			"pbrMetallicRoughness":{
				"baseColorFactor":[
					0,
					0,
					0,
					1
				],
				"metallicFactor":0,
				"roughnessFactor":0.5
			}
		},
		{
			"doubleSided":true,
			"name":"Material.001",
			"pbrMetallicRoughness":{
				"baseColorFactor":[
					0.11577735841274261,
					0.32131335139274597,
					0.5759536623954773,
					1
				],
				"metallicFactor":0,
				"roughnessFactor":0.6645569801330566
			}
		},
		{
			"doubleSided":true,
			"name":"Material",
			"pbrMetallicRoughness":{
				"baseColorFactor":[
					0.0481715202331543,
					0.04817187413573265,
					0.04817185550928116,
					1
				],
				"metallicFactor":0,
				"roughnessFactor":0.5
			}
		},
		{
			"doubleSided":true,
			"name":"Material.003",
			"pbrMetallicRoughness":{
				"baseColorFactor":[
					0.0481715202331543,
					0.04817187413573265,
					0.04817185550928116,
					1
				],
				"metallicFactor":0,
				"roughnessFactor":0.5
			}
		},
		{
			"doubleSided":true,
			"name":"Material.007",
			"pbrMetallicRoughness":{
				"baseColorFactor":[
					0.7710239291191101,
					0.7710239291191101,
					0.7710239291191101,
					1
				],
				"metallicFactor":0,
				"roughnessFactor":0.5
			}
		},
		{
			"doubleSided":true,
			"name":"Material.004",
			"pbrMetallicRoughness":{
				"metallicFactor":0,
				"roughnessFactor":0.5
			}
		}
	],
	"meshes":[
		{
			"name":"Mesh.007",
			"primitives":[
				{
					"attributes":{
						"POSITION":0,
						"NORMAL":1,
						"TEXCOORD_0":2,
						"TEXCOORD_1":3
					},
					"indices":4
				}
			]
		},
		{
			"name":"Mesh.006",
			"primitives":[
				{
					"attributes":{
						"POSITION":5,
						"NORMAL":6,
						"TEXCOORD_0":7,
						"TEXCOORD_1":8
					},
					"indices":9
				}
			]
		},
		{
			"name":"Mesh.004",
			"primitives":[
				{
					"attributes":{
						"POSITION":10,
						"NORMAL":11,
						"TEXCOORD_0":12
					},
					"indices":13
				}
			]
		},
		{
			"name":"Mesh.003",
			"primitives":[
				{
					"attributes":{
						"POSITION":14,
						"NORMAL":15,
						"TEXCOORD_0":16
					},
					"indices":13
				}
			]
		},
		{
			"name":"Mesh.002",
			"primitives":[
				{
					"attributes":{
						"POSITION":17,
						"NORMAL":18,
						"TEXCOORD_0":19
					},
					"indices":13,
					"material":0
				}
			]
		},
		{
			"name":"Mesh.010",
			"primitives":[
				{
					"attributes":{
						"POSITION":20,
						"NORMAL":21,
						"TEXCOORD_0":22
					},
					"indices":13,
					"material":1
				}
			]
		},
		{
			"name":"Mesh.001",
			"primitives":[
				{
					"attributes":{
						"POSITION":23,
						"NORMAL":24,
						"TEXCOORD_0":25
					},
					"indices":26,
					"material":2
				}
			]
		},
		{
			"name":"Mesh",
			"primitives":[
				{
					"attributes":{
						"POSITION":27,
						"NORMAL":28,
						"TEXCOORD_0":29
					},
					"indices":30,
					"material":3
				}
			]
		},
		{
			"name":"Mesh.008",
			"primitives":[
				{
					"attributes":{
						"POSITION":31,
						"NORMAL":32,
						"TEXCOORD_0":33,
						"TEXCOORD_1":34
					},
					"indices":35
				}
			]
		},
		{
			"name":"Mesh.011",
			"primitives":[
				{
					"attributes":{
						"POSITION":36,
						"NORMAL":37,
						"TEXCOORD_0":38,
						"TEXCOORD_1":39
					},
					"indices":40,
					"material":4
				}
			]
		},
		{
			"name":"Cone",
			"primitives":[
				{
					"attributes":{
						"POSITION":41,
						"NORMAL":42,
						"TEXCOORD_0":43
					},
					"indices":44,
					"material":5
				}
			]
		},
		{
			"name":"Cone.001",
			"primitives":[
				{
					"attributes":{
						"POSITION":45,
						"NORMAL":46,
						"TEXCOORD_0":47
					},
					"indices":44,
					"material":6
				}
			]
		},
		{
			"name":"Plane.001",
			"primitives":[
				{
					"attributes":{
						"POSITION":48,
						"NORMAL":49,
						"TEXCOORD_0":50
					},
					"indices":51,
					"material":7
				}
			]
		},
		{
			"name":"Plane.003",
			"primitives":[
				{
					"attributes":{
						"POSITION":52,
						"NORMAL":53,
						"TEXCOORD_0":54
					},
					"indices":51,
					"material":8
				}
			]
		}
	],
	"accessors":[
		{
			"bufferView":0,
			"componentType":5126,
			"count":280,
			"max":[
				2.187138795852661,
				0.6435767412185669,
				0.31256482005119324
			],
			"min":[
				0.3305441737174988,
				-1.4196233749389648,
				-0.6567428112030029
			],
			"type":"VEC3"
		},
		{
			"bufferView":1,
			"componentType":5126,
			"count":280,
			"type":"VEC3"
		},
		{
			"bufferView":2,
			"componentType":5126,
			"count":280,
			"type":"VEC2"
		},
		{
			"bufferView":3,
			"componentType":5126,
			"count":280,
			"type":"VEC2"
		},
		{
			"bufferView":4,
			"componentType":5123,
			"count":960,
			"type":"SCALAR"
		},
		{
			"bufferView":5,
			"componentType":5126,
			"count":1196,
			"max":[
				1.0260825157165527,
				1.0726652145385742,
				0.918354868888855
			],
			"min":[
				-1.0232576131820679,
				-1.6844264268875122,
				-0.8785357475280762
			],
			"type":"VEC3"
		},
		{
			"bufferView":6,
			"componentType":5126,
			"count":1196,
			"type":"VEC3"
		},
		{
			"bufferView":7,
			"componentType":5126,
			"count":1196,
			"type":"VEC2"
		},
		{
			"bufferView":8,
			"componentType":5126,
			"count":1196,
			"type":"VEC2"
		},
		{
			"bufferView":9,
			"componentType":5123,
			"count":4428,
			"type":"SCALAR"
		},
		{
			"bufferView":10,
			"componentType":5126,
			"count":566,
			"max":[
				13.235642433166504,
				3.0827627182006836,
				13.538025856018066
			],
			"min":[
				-13.235642433166504,
				-3.0827627182006836,
				-13.538025856018066
			],
			"type":"VEC3"
		},
		{
			"bufferView":11,
			"componentType":5126,
			"count":566,
			"type":"VEC3"
		},
		{
			"bufferView":12,
			"componentType":5126,
			"count":566,
			"type":"VEC2"
		},
		{
			"bufferView":13,
			"componentType":5123,
			"count":2880,
			"type":"SCALAR"
		},
		{
			"bufferView":14,
			"componentType":5126,
			"count":566,
			"max":[
				13.235642433166504,
				3.0827627182006836,
				13.538025856018066
			],
			"min":[
				-13.235642433166504,
				-3.0827627182006836,
				-13.538025856018066
			],
			"type":"VEC3"
		},
		{
			"bufferView":15,
			"componentType":5126,
			"count":566,
			"type":"VEC3"
		},
		{
			"bufferView":16,
			"componentType":5126,
			"count":566,
			"type":"VEC2"
		},
		{
			"bufferView":17,
			"componentType":5126,
			"count":566,
			"max":[
				13.235642433166504,
				3.0827627182006836,
				13.538025856018066
			],
			"min":[
				-13.235642433166504,
				-3.0827627182006836,
				-13.538025856018066
			],
			"type":"VEC3"
		},
		{
			"bufferView":18,
			"componentType":5126,
			"count":566,
			"type":"VEC3"
		},
		{
			"bufferView":19,
			"componentType":5126,
			"count":566,
			"type":"VEC2"
		},
		{
			"bufferView":20,
			"componentType":5126,
			"count":566,
			"max":[
				13.235642433166504,
				3.0827627182006836,
				13.538025856018066
			],
			"min":[
				-13.235642433166504,
				-3.0827627182006836,
				-13.538025856018066
			],
			"type":"VEC3"
		},
		{
			"bufferView":21,
			"componentType":5126,
			"count":566,
			"type":"VEC3"
		},
		{
			"bufferView":22,
			"componentType":5126,
			"count":566,
			"type":"VEC2"
		},
		{
			"bufferView":23,
			"componentType":5126,
			"count":219,
			"max":[
				4.998899459838867,
				14.849080085754395,
				5.85082483291626
			],
			"min":[
				-4.998899459838867,
				-14.849080085754395,
				-5.85082483291626
			],
			"type":"VEC3"
		},
		{
			"bufferView":24,
			"componentType":5126,
			"count":219,
			"type":"VEC3"
		},
		{
			"bufferView":25,
			"componentType":5126,
			"count":219,
			"type":"VEC2"
		},
		{
			"bufferView":26,
			"componentType":5123,
			"count":1056,
			"type":"SCALAR"
		},
		{
			"bufferView":27,
			"componentType":5126,
			"count":321,
			"max":[
				24.186307907104492,
				2.843778371810913,
				19.5454044342041
			],
			"min":[
				-1.4240156412124634,
				-2.843778371810913,
				-15.782661437988281
			],
			"type":"VEC3"
		},
		{
			"bufferView":28,
			"componentType":5126,
			"count":321,
			"type":"VEC3"
		},
		{
			"bufferView":29,
			"componentType":5126,
			"count":321,
			"type":"VEC2"
		},
		{
			"bufferView":30,
			"componentType":5123,
			"count":1632,
			"type":"SCALAR"
		},
		{
			"bufferView":31,
			"componentType":5126,
			"count":150,
			"max":[
				0.6522644758224487,
				-0.5453662276268005,
				0.5745826363563538
			],
			"min":[
				-0.6522645354270935,
				-1.5614272356033325,
				-0.45562613010406494
			],
			"type":"VEC3"
		},
		{
			"bufferView":32,
			"componentType":5126,
			"count":150,
			"type":"VEC3"
		},
		{
			"bufferView":33,
			"componentType":5126,
			"count":150,
			"type":"VEC2"
		},
		{
			"bufferView":34,
			"componentType":5126,
			"count":150,
			"type":"VEC2"
		},
		{
			"bufferView":35,
			"componentType":5123,
			"count":576,
			"type":"SCALAR"
		},
		{
			"bufferView":36,
			"componentType":5126,
			"count":136,
			"max":[
				0.6522644758224487,
				-0.5453662276268005,
				0.5745826363563538
			],
			"min":[
				-0.6522645354270935,
				-1.5614272356033325,
				-0.45562613010406494
			],
			"type":"VEC3"
		},
		{
			"bufferView":37,
			"componentType":5126,
			"count":136,
			"type":"VEC3"
		},
		{
			"bufferView":38,
			"componentType":5126,
			"count":136,
			"type":"VEC2"
		},
		{
			"bufferView":39,
			"componentType":5126,
			"count":136,
			"type":"VEC2"
		},
		{
			"bufferView":40,
			"componentType":5123,
			"count":480,
			"type":"SCALAR"
		},
		{
			"bufferView":41,
			"componentType":5126,
			"count":128,
			"max":[
				1,
				1,
				1
			],
			"min":[
				-1,
				-1,
				-1
			],
			"type":"VEC3"
		},
		{
			"bufferView":42,
			"componentType":5126,
			"count":128,
			"type":"VEC3"
		},
		{
			"bufferView":43,
			"componentType":5126,
			"count":128,
			"type":"VEC2"
		},
		{
			"bufferView":44,
			"componentType":5123,
			"count":186,
			"type":"SCALAR"
		},
		{
			"bufferView":45,
			"componentType":5126,
			"count":128,
			"max":[
				1,
				1,
				1
			],
			"min":[
				-1,
				-1,
				-1
			],
			"type":"VEC3"
		},
		{
			"bufferView":46,
			"componentType":5126,
			"count":128,
			"type":"VEC3"
		},
		{
			"bufferView":47,
			"componentType":5126,
			"count":128,
			"type":"VEC2"
		},
		{
			"bufferView":48,
			"componentType":5126,
			"count":4,
			"max":[
				1,
				0,
				1
			],
			"min":[
				-1,
				0,
				-1
			],
			"type":"VEC3"
		},
		{
			"bufferView":49,
			"componentType":5126,
			"count":4,
			"type":"VEC3"
		},
		{
			"bufferView":50,
			"componentType":5126,
			"count":4,
			"type":"VEC2"
		},
		{
			"bufferView":51,
			"componentType":5123,
			"count":6,
			"type":"SCALAR"
		},
		{
			"bufferView":52,
			"componentType":5126,
			"count":4,
			"max":[
				1,
				0,
				1
			],
			"min":[
				-1,
				0,
				-1
			],
			"type":"VEC3"
		},
		{
			"bufferView":53,
			"componentType":5126,
			"count":4,
			"type":"VEC3"
		},
		{
			"bufferView":54,
			"componentType":5126,
			"count":4,
			"type":"VEC2"
		}
	],
	"bufferViews":[
		{
			"buffer":0,
			"byteLength":3360,
			"byteOffset":0,
			"target":34962
		},
		{
			"buffer":0,
			"byteLength":3360,
			"byteOffset":3360,
			"target":34962
		},
		{
			"buffer":0,
			"byteLength":2240,
			"byteOffset":6720,
			"target":34962
		},
		{
			"buffer":0,
			"byteLength":2240,
			"byteOffset":8960,
			"target":34962
		},
		{
			"buffer":0,
			"byteLength":1920,
			"byteOffset":11200,
			"target":34963
		},
		{
			"buffer":0,
			"byteLength":14352,
			"byteOffset":13120,
			"target":34962
		},
		{
			"buffer":0,
			"byteLength":14352,
			"byteOffset":27472,
			"target":34962
		},
		{
			"buffer":0,
			"byteLength":9568,
			"byteOffset":41824,
			"target":34962
		},
		{
			"buffer":0,
			"byteLength":9568,
			"byteOffset":51392,
			"target":34962
		},
		{
			"buffer":0,
			"byteLength":8856,
			"byteOffset":60960,
			"target":34963
		},
		{
			"buffer":0,
			"byteLength":6792,
			"byteOffset":69816,
			"target":34962
		},
		{
			"buffer":0,
			"byteLength":6792,
			"byteOffset":76608,
			"target":34962
		},
		{
			"buffer":0,
			"byteLength":4528,
			"byteOffset":83400,
			"target":34962
		},
		{
			"buffer":0,
			"byteLength":5760,
			"byteOffset":87928,
			"target":34963
		},
		{
			"buffer":0,
			"byteLength":6792,
			"byteOffset":93688,
			"target":34962
		},
		{
			"buffer":0,
			"byteLength":6792,
			"byteOffset":100480,
			"target":34962
		},
		{
			"buffer":0,
			"byteLength":4528,
			"byteOffset":107272,
			"target":34962
		},
		{
			"buffer":0,
			"byteLength":6792,
			"byteOffset":111800,
			"target":34962
		},
		{
			"buffer":0,
			"byteLength":6792,
			"byteOffset":118592,
			"target":34962
		},
		{
			"buffer":0,
			"byteLength":4528,
			"byteOffset":125384,
			"target":34962
		},
		{
			"buffer":0,
			"byteLength":6792,
			"byteOffset":129912,
			"target":34962
		},
		{
			"buffer":0,
			"byteLength":6792,
			"byteOffset":136704,
			"target":34962
		},
		{
			"buffer":0,
			"byteLength":4528,
			"byteOffset":143496,
			"target":34962
		},
		{
			"buffer":0,
			"byteLength":2628,
			"byteOffset":148024,
			"target":34962
		},
		{
			"buffer":0,
			"byteLength":2628,
			"byteOffset":150652,
			"target":34962
		},
		{
			"buffer":0,
			"byteLength":1752,
			"byteOffset":153280,
			"target":34962
		},
		{
			"buffer":0,
			"byteLength":2112,
			"byteOffset":155032,
			"target":34963
		},
		{
			"buffer":0,
			"byteLength":3852,
			"byteOffset":157144,
			"target":34962
		},
		{
			"buffer":0,
			"byteLength":3852,
			"byteOffset":160996,
			"target":34962
		},
		{
			"buffer":0,
			"byteLength":2568,
			"byteOffset":164848,
			"target":34962
		},
		{
			"buffer":0,
			"byteLength":3264,
			"byteOffset":167416,
			"target":34963
		},
		{
			"buffer":0,
			"byteLength":1800,
			"byteOffset":170680,
			"target":34962
		},
		{
			"buffer":0,
			"byteLength":1800,
			"byteOffset":172480,
			"target":34962
		},
		{
			"buffer":0,
			"byteLength":1200,
			"byteOffset":174280,
			"target":34962
		},
		{
			"buffer":0,
			"byteLength":1200,
			"byteOffset":175480,
			"target":34962
		},
		{
			"buffer":0,
			"byteLength":1152,
			"byteOffset":176680,
			"target":34963
		},
		{
			"buffer":0,
			"byteLength":1632,
			"byteOffset":177832,
			"target":34962
		},
		{
			"buffer":0,
			"byteLength":1632,
			"byteOffset":179464,
			"target":34962
		},
		{
			"buffer":0,
			"byteLength":1088,
			"byteOffset":181096,
			"target":34962
		},
		{
			"buffer":0,
			"byteLength":1088,
			"byteOffset":182184,
			"target":34962
		},
		{
			"buffer":0,
			"byteLength":960,
			"byteOffset":183272,
			"target":34963
		},
		{
			"buffer":0,
			"byteLength":1536,
			"byteOffset":184232,
			"target":34962
		},
		{
			"buffer":0,
			"byteLength":1536,
			"byteOffset":185768,
			"target":34962
		},
		{
			"buffer":0,
			"byteLength":1024,
			"byteOffset":187304,
			"target":34962
		},
		{
			"buffer":0,
			"byteLength":372,
			"byteOffset":188328,
			"target":34963
		},
		{
			"buffer":0,
			"byteLength":1536,
			"byteOffset":188700,
			"target":34962
		},
		{
			"buffer":0,
			"byteLength":1536,
			"byteOffset":190236,
			"target":34962
		},
		{
			"buffer":0,
			"byteLength":1024,
			"byteOffset":191772,
			"target":34962
		},
		{
			"buffer":0,
			"byteLength":48,
			"byteOffset":192796,
			"target":34962
		},
		{
			"buffer":0,
			"byteLength":48,
			"byteOffset":192844,
			"target":34962
		},
		{
			"buffer":0,
			"byteLength":32,
			"byteOffset":192892,
			"target":34962
		},
		{
			"buffer":0,
			"byteLength":12,
			"byteOffset":192924,
			"target":34963
		},
		{
			"buffer":0,
			"byteLength":48,
			"byteOffset":192936,
			"target":34962
		},
		{
			"buffer":0,
			"byteLength":48,
			"byteOffset":192984,
			"target":34962
		},
		{
			"buffer":0,
			"byteLength":32,
			"byteOffset":193032,
			"target":34962
		}
	],
	"buffers":[
		{
			"byteLength":193064,
			"uri":"resblend1.bin"
		}
	]
}
